<?xml version="1.0" standalone="no"?>
<!DOCTYPE svg PUBLIC "-//W3C//DTD SVG 20010904//EN"
 "http://www.w3.org/TR/2001/REC-SVG-20010904/DTD/svg10.dtd">
<svg version="1.0" xmlns="http://www.w3.org/2000/svg"
 width="500.000000pt" height="250.000000pt" viewBox="0 0 500.000000 250.000000"
 preserveAspectRatio="xMidYMid meet">

<g transform="translate(0.000000,250.000000) scale(0.100000,-0.100000)"
fill="#000000" stroke="none">
<path d="M1414 1809 c-138 -53 -219 -194 -193 -334 5 -28 29 -98 54 -157 58
-138 75 -211 75 -323 0 -97 -17 -183 -48 -254 -33 -73 -38 -72 217 -69 261 3
241 -9 195 118 -20 56 -28 100 -31 175 -6 126 10 205 72 349 59 138 71 196 56
267 -23 106 -95 190 -195 228 -70 26 -135 26 -202 0z m179 -65 c63 -22 123
-83 142 -147 24 -81 17 -137 -15 -117 -20 13 -87 13 -95 0 -12 -19 -22 -10
-58 49 -46 73 -108 131 -143 131 -15 0 -38 -12 -56 -31 -27 -27 -30 -34 -24
-72 3 -23 8 -51 12 -63 8 -29 -21 -57 -46 -44 -36 19 -36 108 0 180 55 106
170 153 283 114z m-117 -201 c10 -15 42 -73 69 -128 47 -93 60 -109 113 -131
1 -1 -8 -39 -20 -85 -18 -67 -23 -110 -23 -212 l0 -127 -92 0 c-51 0 -93 2
-93 5 0 3 15 36 34 74 57 113 76 181 76 273 0 89 -13 129 -70 218 -59 94 -76
175 -32 151 11 -6 28 -23 38 -38z m218 -129 c22 -21 20 -41 -5 -54 -39 -22
-70 37 -31 59 9 6 18 11 19 11 1 0 9 -7 17 -16z m-247 -82 c33 -68 36 -158 9
-242 -24 -71 -36 -84 -36 -38 0 48 -43 216 -69 266 -26 51 -26 62 -2 62 10 0
24 7 31 15 17 21 33 6 67 -63z m197 -558 c16 -43 12 -44 -129 -44 -74 0 -135
3 -135 8 0 4 3 17 6 30 6 21 10 22 129 22 103 0 124 -3 129 -16z"/>
<path d="M3430 1561 c-118 -42 -181 -177 -150 -324 24 -119 104 -191 225 -203
97 -10 167 9 218 60 39 40 74 111 59 120 -12 7 -115 36 -129 36 -7 0 -15 -11
-19 -24 -17 -70 -110 -95 -161 -43 -27 26 -28 32 -28 121 0 86 2 97 24 120 13
14 36 28 52 31 35 8 96 -19 104 -46 7 -22 21 -23 98 -8 31 7 57 17 57 24 0 30
-63 105 -107 126 -65 31 -170 36 -243 10z"/>
<path d="M2320 1406 c0 -190 -5 -222 -36 -242 -32 -21 -60 -4 -68 42 l-7 36
-47 -6 c-96 -13 -102 -16 -102 -42 0 -67 59 -137 130 -153 94 -22 170 -8 225
40 54 48 65 101 65 311 l0 178 -80 0 -80 0 0 -164z"/>
<path d="M2590 1305 l0 -265 65 0 65 0 0 192 c0 105 2 189 6 186 3 -3 26 -88
53 -189 l47 -184 61 -3 61 -3 20 78 c12 43 35 130 51 193 l30 115 1 -192 0
-193 70 0 70 0 0 265 0 265 -110 0 c-60 0 -110 -2 -110 -5 0 -7 -70 -278 -77
-295 -5 -14 -28 61 -71 230 l-17 65 -107 3 -108 3 0 -266z"/>
<path d="M2042 933 c2 -55 6 -68 21 -71 15 -3 17 5 17 67 0 65 -2 71 -20 71
-19 0 -21 -5 -18 -67z"/>
<path d="M2120 930 c0 -63 2 -70 19 -70 16 0 20 8 23 38 l3 37 24 -38 c17 -28
29 -37 45 -35 19 3 21 10 24 71 3 67 3 67 -24 67 -24 0 -26 -3 -22 -30 3 -16
1 -30 -3 -30 -4 0 -17 14 -29 30 -12 17 -30 30 -41 30 -17 0 -19 -7 -19 -70z"/>
<path d="M2282 933 l3 -68 47 -3 c37 -2 51 1 67 17 25 25 27 68 5 99 -12 18
-25 22 -70 22 l-55 0 3 -67z m88 17 c13 -24 -3 -60 -25 -60 -11 0 -15 12 -15
40 0 44 21 55 40 20z"/>
<path d="M2440 952 c0 -65 20 -92 69 -92 52 0 71 23 71 88 0 45 -3 52 -20 52
-17 0 -20 -7 -20 -39 0 -52 -8 -71 -31 -71 -16 0 -19 8 -19 55 0 52 -1 55 -25
55 -23 0 -25 -3 -25 -48z"/>
<path d="M2610 930 c0 -63 2 -70 20 -70 17 0 20 7 21 43 l1 42 11 -42 c13 -56
43 -60 53 -8 3 19 10 35 15 35 5 0 9 -16 9 -35 0 -24 5 -35 15 -35 12 0 15 14
15 70 l0 70 -29 0 c-25 0 -30 -5 -35 -35 -8 -41 -21 -38 -31 5 -5 25 -11 30
-36 30 l-29 0 0 -70z"/>
<path d="M2800 930 l0 -70 60 0 c46 0 60 3 60 14 0 10 -13 16 -37 18 -47 4
-50 22 -5 26 46 5 43 32 -4 32 -21 0 -33 4 -29 10 3 6 22 10 41 10 24 0 34 5
34 15 0 12 -13 15 -60 15 l-60 0 0 -70z"/>
<path d="M2950 930 c0 -63 2 -70 19 -70 16 0 20 8 23 38 l3 37 24 -38 c16 -26
29 -37 43 -35 10 2 19 6 18 11 0 4 0 34 0 67 0 53 -2 60 -20 60 -16 0 -20 -7
-20 -37 l0 -38 -25 38 c-15 21 -34 37 -45 37 -18 0 -20 -7 -20 -70z"/>
<path d="M3100 985 c0 -9 9 -15 25 -15 24 0 25 -3 25 -55 0 -48 2 -55 20 -55
18 0 20 7 20 55 0 52 1 55 25 55 16 0 25 6 25 15 0 12 -14 15 -70 15 -56 0
-70 -3 -70 -15z"/>
<path d="M3261 938 c-12 -34 -21 -66 -21 -70 0 -12 38 -10 45 2 8 14 52 13 57
-1 2 -6 13 -9 25 -7 l21 3 -25 68 c-23 61 -28 67 -53 67 -26 0 -30 -6 -49 -62z
m59 -8 c0 -11 -4 -20 -10 -20 -5 0 -10 9 -10 20 0 11 5 20 10 20 6 0 10 -9 10
-20z"/>
<path d="M3402 933 c3 -62 5 -68 26 -71 19 -3 22 1 22 30 l1 33 27 -33 c15
-18 35 -32 45 -32 21 0 22 9 1 38 -15 21 -15 25 1 42 13 15 14 23 5 39 -9 18
-20 21 -71 21 l-60 0 3 -67z m86 25 c-7 -19 -38 -22 -38 -4 0 10 9 16 21 16
12 0 19 -5 17 -12z"/>
<path d="M3560 930 c0 -68 1 -70 25 -70 24 0 25 2 25 70 0 68 -1 70 -25 70
-24 0 -25 -2 -25 -70z"/>
<path d="M3655 943 c-11 -32 -21 -64 -23 -70 -4 -15 34 -18 43 -3 3 6 17 10
31 10 13 0 24 -4 24 -10 0 -5 12 -10 26 -10 28 0 28 2 -6 90 -15 38 -22 45
-47 48 -27 3 -30 -1 -48 -55z m58 -26 c-3 -5 -10 -4 -15 1 -6 6 -7 16 -3 22 6
9 9 9 16 -1 4 -7 5 -17 2 -22z"/>
</g>
</svg>
